# xmcd
#
# Track frame offsets: 
#        150
#        11444
#        26871
#        44409
#        82439
#
# Disc length: 1655 seconds
#
# Revision: 0
# Processed by: cddbd v1.5.2PL0 Copyright (c) Steve Scherf et al.
# Submitted via: ExactAudioCopy v0.99pb3
#
DISCID=3d067505
DTITLE=Noisettes - Three Moods Of The
DYEAR=2005
DGENRE=Low Altitude
TTITLE0=Don't Give Up
TTITLE1=Monte Christo
TTITLE2=Signs
TTITLE3=Burn
TTITLE4=VIDEO
EXTD=
EXTT0=
EXTT1=
EXTT2=
EXTT3=
EXTT4=
PLAYORDER=
